# xmcd
#
# Track frame offsets:
#	150
#	64403
#	115403
#	177039
#	213834
#	232076
#
# Disc length: 3541 seconds
#
# Revision: 1
# Processed by: cddbd v1.5.2PL0 Copyright (c) Steve Scherf et al.
# Submitted via: audiograbber 1.83.01
#
DISCID=530dd306
DTITLE=Grateful Dead - 77-06-08 Winterland Arena, San Francisco CA
DYEAR=1900
DGENRE=
TTITLE0=Drums > The Other One
TTITLE1=Wharf Rat
TTITLE2=Not Fade Away
TTITLE3=GDTRFB
TTITLE4=Johnny B Goode
TTITLE5=Brokedown Palace
EXTD=
EXTT0=
EXTT1=
EXTT2=
EXTT3=
EXTT4=
EXTT5=
PLAYORDER=
